<svg xmlns="http://www.w3.org/2000/svg" xmlns:xlink="http://www.w3.org/1999/xlink" width="500" zoomAndPan="magnify" viewBox="0 0 375 374.999991" height="500" preserveAspectRatio="xMidYMid meet" version="1.0"><defs><g/><clipPath id="512abf349a"><path d="M 110 88.222656 L 264 88.222656 L 264 232.972656 L 110 232.972656 Z M 110 88.222656 " clip-rule="nonzero"/></clipPath></defs><rect x="-37.5" width="450" fill="#ffffff" y="-37.499999" height="449.999989" fill-opacity="1"/><rect x="-37.5" width="450" fill="#f6f6f6" y="-37.499999" height="449.999989" fill-opacity="1"/><g clip-path="url(#512abf349a)"><path fill="#007bff" d="M 253.3125 138.089844 C 261.8125 148.425781 262.332031 159.585938 256.460938 170.871094 C 249.917969 183.375 239.277344 190.347656 224.96875 190.53125 C 204.238281 190.773438 183.507812 190.589844 162.773438 190.589844 C 157.273438 190.589844 154.246094 188.605469 153.542969 184.539062 C 152.777344 180.226562 155.621094 175.242188 160.023438 173.714844 C 161.859375 173.070312 163.90625 172.886719 165.832031 172.886719 C 186.5625 172.828125 207.292969 172.855469 228.027344 172.828125 C 234.597656 172.828125 240.46875 168.117188 242.03125 161.789062 C 243.773438 154.726562 239.246094 148.304688 231.910156 148.273438 C 209.769531 148.089844 187.632812 147.691406 165.527344 148.394531 C 145.652344 149.039062 129.203125 166.464844 128.40625 186.15625 C 127.796875 201.8125 140.300781 214.960938 156.507812 215.234375 C 172.101562 215.480469 187.726562 215.265625 203.320312 215.328125 C 205.644531 215.328125 206.746094 214.625 206.773438 212.207031 C 206.804688 210.710938 207.109375 209.210938 207.417969 207.714844 C 208.304688 203.1875 210.933594 200.132812 215.398438 198.9375 C 221.054688 197.441406 225.914062 201.628906 225.121094 207.378906 C 224.082031 215.113281 222.917969 222.820312 221.605469 230.492188 C 221.453125 231.378906 219.921875 232.695312 219.003906 232.695312 C 196.164062 232.785156 173.324219 233.277344 150.515625 232.574219 C 128.316406 231.839844 111.375 212.882812 110.671875 190.804688 C 109.695312 160.320312 137.671875 130.171875 171.03125 130.632812 C 190.9375 130.90625 210.871094 130.691406 230.777344 130.660156 C 238.757812 130.660156 244.78125 125.648438 246.003906 118.09375 C 246.953125 112.375 243.101562 107.027344 237.382812 106.199219 C 235.882812 105.984375 234.355469 106.015625 232.855469 106.015625 C 208.976562 106.015625 185.097656 106.015625 161.214844 106.015625 C 155.285156 106.015625 152.257812 103.96875 151.644531 99.566406 C 151.003906 94.980469 154.367188 90.148438 159.257812 88.863281 C 160.695312 88.464844 162.253906 88.3125 163.753906 88.3125 C 188.09375 88.28125 212.429688 88.222656 236.800781 88.3125 C 251.050781 88.375 261.078125 95.925781 263.433594 108.675781 C 265.296875 118.675781 262.269531 127.542969 255.878906 135.308594 C 255.117188 136.164062 254.320312 136.992188 253.3125 138.089844 Z M 253.3125 138.089844 " fill-opacity="1" fill-rule="nonzero"/></g><g fill="#000000" fill-opacity="1"><g transform="translate(66.11268, 267.185408)"><g><path d="M 2.625 0 L 2.625 -22.15625 L 12.9375 -22.15625 C 15.039062 -22.15625 16.707031 -21.726562 17.9375 -20.875 C 19.175781 -20.019531 19.796875 -18.644531 19.796875 -16.75 C 19.796875 -15.539062 19.488281 -14.484375 18.875 -13.578125 C 18.257812 -12.671875 17.273438 -12.039062 15.921875 -11.6875 L 15.921875 -11.65625 C 17.453125 -11.394531 18.632812 -10.800781 19.46875 -9.875 C 20.300781 -8.957031 20.71875 -7.765625 20.71875 -6.296875 C 20.71875 -2.097656 18.222656 0 13.234375 0 Z M 6.625 -3.34375 L 12.671875 -3.34375 C 15.316406 -3.34375 16.640625 -4.425781 16.640625 -6.59375 C 16.640625 -7.71875 16.265625 -8.53125 15.515625 -9.03125 C 14.773438 -9.53125 13.707031 -9.78125 12.3125 -9.78125 L 6.625 -9.78125 Z M 6.625 -13 L 12.28125 -13 C 13.570312 -13 14.507812 -13.265625 15.09375 -13.796875 C 15.6875 -14.335938 15.984375 -15.066406 15.984375 -15.984375 C 15.984375 -16.835938 15.722656 -17.519531 15.203125 -18.03125 C 14.679688 -18.550781 13.773438 -18.8125 12.484375 -18.8125 L 6.625 -18.8125 Z M 6.625 -13 "/></g></g></g><g fill="#000000" fill-opacity="1"><g transform="translate(88.191075, 267.185408)"><g><path d="M 11.359375 0.453125 C 8.117188 0.453125 5.753906 -0.320312 4.265625 -1.875 C 2.773438 -3.425781 2.03125 -5.78125 2.03125 -8.9375 L 2.03125 -22.15625 L 6.015625 -22.15625 L 6.015625 -9.03125 C 6.015625 -5 7.804688 -2.984375 11.390625 -2.984375 C 13.117188 -2.984375 14.429688 -3.484375 15.328125 -4.484375 C 16.234375 -5.492188 16.6875 -7.007812 16.6875 -9.03125 L 16.6875 -22.15625 L 20.6875 -22.15625 L 20.6875 -8.9375 C 20.6875 -5.820312 19.945312 -3.476562 18.46875 -1.90625 C 16.988281 -0.332031 14.617188 0.453125 11.359375 0.453125 Z M 11.359375 0.453125 "/></g></g></g><g fill="#000000" fill-opacity="1"><g transform="translate(110.895176, 267.185408)"><g><path d="M 8.375 0 L 8.375 -6.828125 L 0.328125 -22.15625 L 4.953125 -22.15625 L 10.046875 -11.421875 L 10.375 -10.46875 L 10.734375 -11.421875 L 15.796875 -22.15625 L 20.421875 -22.15625 L 12.40625 -6.828125 L 12.40625 0 Z M 8.375 0 "/></g></g></g><g fill="#000000" fill-opacity="1"><g transform="translate(131.632774, 267.185408)"><g><path d="M 2.625 0 L 2.625 -22.15625 L 6.625 -22.15625 L 6.625 0 Z M 2.625 0 "/></g></g></g><g fill="#000000" fill-opacity="1"><g transform="translate(140.899149, 267.185408)"><g><path d="M 2.625 0 L 2.625 -22.15625 L 7.25 -22.15625 L 17.40625 -6.703125 L 18.1875 -5.515625 L 18.1875 -22.15625 L 22.09375 -22.15625 L 22.09375 0 L 17.46875 0 L 7.296875 -15.4375 L 6.53125 -16.671875 L 6.53125 0 Z M 2.625 0 "/></g></g></g><g fill="#000000" fill-opacity="1"><g transform="translate(165.599541, 267.185408)"><g><path d="M 11.5625 0.453125 C 8.269531 0.453125 5.753906 -0.5 4.015625 -2.40625 C 2.273438 -4.320312 1.40625 -7.128906 1.40625 -10.828125 L 1.40625 -11.265625 C 1.40625 -14.984375 2.273438 -17.796875 4.015625 -19.703125 C 5.753906 -21.609375 8.269531 -22.5625 11.5625 -22.5625 C 13.65625 -22.5625 15.410156 -22.195312 16.828125 -21.46875 C 18.242188 -20.75 19.328125 -19.78125 20.078125 -18.5625 C 20.835938 -17.351562 21.226562 -16.003906 21.25 -14.515625 L 21.25 -14.40625 L 17.296875 -14.40625 L 17.296875 -14.484375 C 17.273438 -15.316406 17.039062 -16.085938 16.59375 -16.796875 C 16.144531 -17.503906 15.5 -18.070312 14.65625 -18.5 C 13.8125 -18.925781 12.769531 -19.140625 11.53125 -19.140625 C 9.570312 -19.140625 8.066406 -18.492188 7.015625 -17.203125 C 5.972656 -15.910156 5.453125 -14.003906 5.453125 -11.484375 L 5.453125 -10.640625 C 5.453125 -8.117188 5.972656 -6.210938 7.015625 -4.921875 C 8.066406 -3.628906 9.570312 -2.984375 11.53125 -2.984375 C 13.1875 -2.984375 14.539062 -3.410156 15.59375 -4.265625 C 16.644531 -5.117188 17.226562 -6.390625 17.34375 -8.078125 L 17.34375 -8.203125 L 11.125 -8.203125 L 11.125 -11.53125 L 21.28125 -11.53125 L 21.28125 -9.953125 C 21.28125 -6.671875 20.472656 -4.113281 18.859375 -2.28125 C 17.253906 -0.457031 14.820312 0.453125 11.5625 0.453125 Z M 11.5625 0.453125 "/></g></g></g><g fill="#000000" fill-opacity="1"><g transform="translate(188.244045, 267.185408)"><g/></g></g><g fill="#000000" fill-opacity="1"><g transform="translate(197.599805, 267.185408)"><g><path d="M 11.5625 0.453125 C 8.269531 0.453125 5.753906 -0.5 4.015625 -2.40625 C 2.273438 -4.320312 1.40625 -7.128906 1.40625 -10.828125 L 1.40625 -11.265625 C 1.40625 -14.984375 2.273438 -17.796875 4.015625 -19.703125 C 5.753906 -21.609375 8.269531 -22.5625 11.5625 -22.5625 C 13.65625 -22.5625 15.410156 -22.195312 16.828125 -21.46875 C 18.242188 -20.75 19.328125 -19.78125 20.078125 -18.5625 C 20.835938 -17.351562 21.226562 -16.003906 21.25 -14.515625 L 21.25 -14.40625 L 17.296875 -14.40625 L 17.296875 -14.484375 C 17.273438 -15.316406 17.039062 -16.085938 16.59375 -16.796875 C 16.144531 -17.503906 15.5 -18.070312 14.65625 -18.5 C 13.8125 -18.925781 12.769531 -19.140625 11.53125 -19.140625 C 9.570312 -19.140625 8.066406 -18.492188 7.015625 -17.203125 C 5.972656 -15.910156 5.453125 -14.003906 5.453125 -11.484375 L 5.453125 -10.640625 C 5.453125 -8.117188 5.972656 -6.210938 7.015625 -4.921875 C 8.066406 -3.628906 9.570312 -2.984375 11.53125 -2.984375 C 13.1875 -2.984375 14.539062 -3.410156 15.59375 -4.265625 C 16.644531 -5.117188 17.226562 -6.390625 17.34375 -8.078125 L 17.34375 -8.203125 L 11.125 -8.203125 L 11.125 -11.53125 L 21.28125 -11.53125 L 21.28125 -9.953125 C 21.28125 -6.671875 20.472656 -4.113281 18.859375 -2.28125 C 17.253906 -0.457031 14.820312 0.453125 11.5625 0.453125 Z M 11.5625 0.453125 "/></g></g></g><g fill="#000000" fill-opacity="1"><g transform="translate(220.244308, 267.185408)"><g><path d="M 2.625 0 L 2.625 -22.15625 L 12.3125 -22.15625 C 15.03125 -22.15625 17.039062 -21.609375 18.34375 -20.515625 C 19.644531 -19.421875 20.296875 -17.835938 20.296875 -15.765625 L 20.296875 -15.734375 C 20.296875 -14.171875 19.898438 -12.910156 19.109375 -11.953125 C 18.316406 -11.003906 17.242188 -10.390625 15.890625 -10.109375 L 15.890625 -10.078125 C 16.960938 -9.816406 17.785156 -9.296875 18.359375 -8.515625 C 18.941406 -7.742188 19.332031 -6.710938 19.53125 -5.421875 L 19.859375 -3.28125 C 19.953125 -2.539062 20.078125 -1.90625 20.234375 -1.375 C 20.398438 -0.851562 20.582031 -0.394531 20.78125 0 L 16.671875 0 C 16.523438 -0.332031 16.382812 -0.765625 16.25 -1.296875 C 16.125 -1.828125 15.984375 -2.535156 15.828125 -3.421875 L 15.4375 -5.578125 C 15.300781 -6.453125 14.910156 -7.117188 14.265625 -7.578125 C 13.617188 -8.035156 12.582031 -8.265625 11.15625 -8.265625 L 6.625 -8.265625 L 6.625 0 Z M 6.625 -11.5625 L 11.890625 -11.5625 C 13.222656 -11.5625 14.285156 -11.859375 15.078125 -12.453125 C 15.878906 -13.054688 16.28125 -14.035156 16.28125 -15.390625 L 16.28125 -15.46875 C 16.28125 -16.519531 15.953125 -17.335938 15.296875 -17.921875 C 14.640625 -18.515625 13.601562 -18.8125 12.1875 -18.8125 L 6.625 -18.8125 Z M 6.625 -11.5625 "/></g></g></g><g fill="#000000" fill-opacity="1"><g transform="translate(241.994951, 267.185408)"><g><path d="M 11.625 0.453125 C 8.320312 0.453125 5.789062 -0.503906 4.03125 -2.421875 C 2.28125 -4.347656 1.40625 -7.164062 1.40625 -10.875 L 1.40625 -11.296875 C 1.40625 -14.992188 2.28125 -17.796875 4.03125 -19.703125 C 5.789062 -21.609375 8.320312 -22.5625 11.625 -22.5625 C 14.945312 -22.5625 17.484375 -21.609375 19.234375 -19.703125 C 20.984375 -17.796875 21.859375 -14.992188 21.859375 -11.296875 L 21.859375 -10.875 C 21.859375 -7.164062 20.984375 -4.347656 19.234375 -2.421875 C 17.484375 -0.503906 14.945312 0.453125 11.625 0.453125 Z M 5.453125 -10.765625 C 5.453125 -8.203125 5.984375 -6.265625 7.046875 -4.953125 C 8.109375 -3.640625 9.632812 -2.984375 11.625 -2.984375 C 13.632812 -2.984375 15.171875 -3.640625 16.234375 -4.953125 C 17.296875 -6.265625 17.828125 -8.203125 17.828125 -10.765625 L 17.828125 -11.421875 C 17.828125 -13.960938 17.296875 -15.882812 16.234375 -17.1875 C 15.171875 -18.488281 13.632812 -19.140625 11.625 -19.140625 C 9.632812 -19.140625 8.109375 -18.488281 7.046875 -17.1875 C 5.984375 -15.882812 5.453125 -13.960938 5.453125 -11.421875 Z M 5.453125 -10.765625 "/></g></g></g><g fill="#000000" fill-opacity="1"><g transform="translate(265.235362, 267.185408)"><g><path d="M 11.359375 0.453125 C 8.117188 0.453125 5.753906 -0.320312 4.265625 -1.875 C 2.773438 -3.425781 2.03125 -5.78125 2.03125 -8.9375 L 2.03125 -22.15625 L 6.015625 -22.15625 L 6.015625 -9.03125 C 6.015625 -5 7.804688 -2.984375 11.390625 -2.984375 C 13.117188 -2.984375 14.429688 -3.484375 15.328125 -4.484375 C 16.234375 -5.492188 16.6875 -7.007812 16.6875 -9.03125 L 16.6875 -22.15625 L 20.6875 -22.15625 L 20.6875 -8.9375 C 20.6875 -5.820312 19.945312 -3.476562 18.46875 -1.90625 C 16.988281 -0.332031 14.617188 0.453125 11.359375 0.453125 Z M 11.359375 0.453125 "/></g></g></g><g fill="#000000" fill-opacity="1"><g transform="translate(287.939463, 267.185408)"><g><path d="M 2.625 0 L 2.625 -22.15625 L 12.078125 -22.15625 C 14.660156 -22.15625 16.6875 -21.539062 18.15625 -20.3125 C 19.625 -19.09375 20.359375 -17.269531 20.359375 -14.84375 L 20.359375 -14.734375 C 20.359375 -12.179688 19.632812 -10.25 18.1875 -8.9375 C 16.738281 -7.625 14.722656 -6.96875 12.140625 -6.96875 L 6.625 -6.96875 L 6.625 0 Z M 6.625 -10.3125 L 11.890625 -10.3125 C 13.347656 -10.3125 14.445312 -10.664062 15.1875 -11.375 C 15.9375 -12.082031 16.3125 -13.191406 16.3125 -14.703125 L 16.3125 -14.75 C 16.3125 -16.039062 15.960938 -17.039062 15.265625 -17.75 C 14.566406 -18.457031 13.484375 -18.8125 12.015625 -18.8125 L 6.625 -18.8125 Z M 6.625 -10.3125 "/></g></g></g><g fill="#000000" fill-opacity="1"><g transform="translate(168.743368, 284.218989)"><g><path d="M 1.21875 0 L 1.21875 -10.265625 L 6.625 -10.265625 L 8.078125 -8.796875 L 8.078125 -5.28125 L 6.625 -3.8125 L 2.484375 -3.8125 L 2.484375 0 Z M 2.484375 -4.9375 L 6.0625 -4.9375 L 6.8125 -5.703125 L 6.8125 -8.359375 L 6.0625 -9.140625 L 2.484375 -9.140625 Z M 2.484375 -4.9375 "/></g></g></g><g fill="#000000" fill-opacity="1"><g transform="translate(184.755077, 284.218989)"><g><path d="M 1.140625 0 L 1.140625 -7.28125 L 2.359375 -7.28125 L 2.359375 -5.96875 L 3.640625 -7.28125 L 5.5 -7.28125 L 5.5 -6.0625 L 3.6875 -6.0625 L 2.359375 -4.6875 L 2.359375 0 Z M 1.140625 0 "/></g></g></g><g fill="#000000" fill-opacity="1"><g transform="translate(197.927172, 284.218989)"><g><path d="M 2.4375 0 L 0.96875 -1.46875 L 0.96875 -5.8125 L 2.4375 -7.28125 L 5.890625 -7.28125 L 7.34375 -5.8125 L 7.34375 -1.46875 L 5.890625 0 Z M 2.96875 -0.96875 L 5.359375 -0.96875 L 6.125 -1.734375 L 6.109375 -5.546875 L 5.359375 -6.3125 L 2.96875 -6.3125 L 2.203125 -5.546875 L 2.203125 -1.734375 Z M 2.96875 -0.96875 "/></g></g></g></svg>